# AST/ASF file generated using VICON BodyLanguage
# -----------------------------------------------
:version 1.10
:name VICON
:units
  mass 1.0
  length 0.45
  angle deg
:documentation
   .ast/.asf automatically generated from VICON data using
   VICON BodyBuilder and BodyLanguage model FoxedUp or BRILLIANT.MOD
:root
   order TX TY TZ RX RY RZ
   axis XYZ
   position 0 0 0  
   orientation 0 0 0 
:bonedata
  begin
     id 1 
     name lhipjoint
     direction 0.54267 -0.795011 0.271047 
     length 2.39899 
     axis 0 0 0  XYZ
  end
  begin
     id 2 
     name lfemur
     direction 0.34202 -0.939693 0  
     length 7.49701  
     axis 0 0 20  XYZ
    dof rx ry rz
    limits (-160.0 20.0)
           (-70.0 70.0)
           (-60.0 70.0)
  end
  begin
     id 3 
     name ltibia
     direction 0.34202 -0.939693 0   
     length 8.1668   
     axis 0 0 20   XYZ
    dof rx
    limits (-10.0 170.0)
  end
  begin
     id 4 
     name lfoot
     direction 0.0736283 -0.202292 0.976554   
     length 2.13544   
     axis -90 7.62852e-016 20   XYZ
    dof rx rz
    limits (-45.0 90.0)
           (-70.0 20.0)
  end
  begin
     id 5 
     name ltoes
     direction 1.53557e-011 -4.22024e-011 1   
     length 1.07411   
     axis -90 7.62852e-016 20   XYZ
    dof rx
    limits (-90.0 20.0)
  end
  begin
     id 6 
     name rhipjoint
     direction -0.538061 -0.797813 0.272002   
     length 2.39057  
     axis 0 0 0  XYZ 
  end
  begin
     id 7 
     name rfemur
     direction -0.34202 -0.939693 0   
     length 7.50152   
     axis 0 0 -20   XYZ
    dof rx ry rz
    limits (-160.0 20.0)
           (-70.0 70.0)
           (-70.0 60.0)
  end
  begin
     id 8 
     name rtibia
     direction -0.34202 -0.939693 0   
     length 8.05793   
     axis 0 0 -20   XYZ
    dof rx
    limits (-10.0 170.0)
 end
 begin
     id 9 
     name rfoot
     direction -0.0765195 -0.210236 0.974652   
     length 2.28698  
     axis -90 -7.62852e-016 -20   XYZ
    dof rx rz
    limits (-45.0 90.0)
           (-20.0 70.0)
  end
  begin
     id 10 
     name rtoes
     direction -1.53542e-011 -4.21847e-011 1   
     length 1.14762   
     axis -90 -7.62852e-016 -20   XYZ
    dof rx
    limits (-90.0 20.0)
  end
  begin
     id 11 
     name lowerback
     direction -0.0217239 0.996592 -0.0795765   
     length 2.08176   
     axis 0 0 0   XYZ
    dof rx ry rz
    limits (-20.0 45.0)
           (-30.0 30.0)
           (-30.0 30.0)
  end
  begin
     id 12 
     name upperback
     direction -0.00563773 0.999651 -0.0258155   
     length 2.08898   
     axis 0 0 0   XYZ
    dof rx ry rz
    limits (-20.0 45.0)
           (-30.0 30.0)
           (-30.0 30.0)
  end
  begin
     id 13 
     name thorax
     direction 0.0032706 0.999923 0.0119599   
     length 2.0968   
     axis 0 0 0   XYZ
    dof rx ry rz
    limits (-20.0 45.0)
           (-30.0 30.0)
           (-30.0 30.0)
  end
  begin
     id 14 
     name lowerneck
     direction -0.0285886 0.99568 0.0883427   
     length 1.81272   
     axis 0 0 0   XYZ
    dof rx ry rz
    limits (-20.0 45.0)
           (-30.0 30.0)
           (-30.0 30.0)
  end
  begin
     id 15 
     name upperneck
     direction 0.0807535 0.97985 -0.18268   
     length 1.82518   
     axis 0 0 0   XYZ
    dof rx ry rz
    limits (-20.0 45.0)
           (-30.0 30.0)
           (-30.0 30.0)
  end
  begin
     id 16
     name head
     direction 0.0236605 0.997053 -0.0729767  
     length 1.84443  
     axis 0 0 0   XYZ
    dof rx ry rz
    limits (-20.0 45.0)
           (-30.0 30.0)
           (-30.0 30.0)
  end
  begin
     id 17 
     name lclavicle
     direction 0.918986 0.39378 -0.0200683  
     length 3.27822  
     axis 0 0 0   XYZ
    dof ry rz
    limits (-20.0 10.0)
           (0.0 20.0)
  end
  begin
     id 18 
     name lhumerus
     direction 1 -4.4897e-011 2.09544e-027   
     length 5.5568   
     axis 180 -30 -90   XYZ
    dof rx ry rz
    limits (-60.0 90.0)
           (-90.0 90.0)
           (-90.0 90.0)
  end
  begin
     id 19
     name lradius
     direction 1 -4.48957e-011 -1.27696e-026   
     length 3.63979   
     axis 180 -30 -90   XYZ
    dof rx
    limits (-10.0 170.0)
  end
  begin
     id 20
     name lwrist
     direction 1 -4.49001e-011 -1.49001e-026   
     length 1.8199   
     axis 9.0955e-015 90 90   XYZ
    dof ry
    limits (-180.0 0.0)
 end
  begin
     id 21 
     name lhand
     direction 1 -4.48709e-011 -2.9758e-026   
     length 0.569419   
     axis 1.90115e-014 90 90   XYZ
    dof rx rz
    limits (-90.0 90.0)
           (-45.0 45.0)
  end
  begin
     id 22 
     name lfingers
     direction 1 -4.49175e-011 -5.96505e-026   
     length 0.45908   
     axis 3.80223e-014 90 90   XYZ
    dof rx
    limits (0.0 90.0)
  end
  begin
     id 23
     name lthumb
     direction 0.707107 -6.34864e-011 0.707107   
     length 0.65915   
     axis -90 45 -3.84942e-014   XYZ
    dof rx rz
    limits (-45.0 45.0)
           (-45.0 45.0)
  end
  begin
     id 24 
     name rclavicle
     direction -0.911913 0.396426 -0.106115   
     length 3.46301  
     axis 0 0 0   XYZ 
    dof ry rz
    limits (-10.0 20.0)
           (-20.0 0.0)
  end
  begin
     id 25 
     name rhumerus
     direction -1 -4.48965e-011 7.78516e-028  
     length 5.34339   
     axis 180 30 90   XYZ
    dof rx ry rz
    limits (-90.0 60.0)
           (-90.0 90.0)
           (-90.0 90.0)
  end
  begin
     id 26 
     name rradius
     direction -1 -4.48948e-011 -5.79823e-027   
     length 3.65101   
     axis 180 30 90   XYZ
    dof rx
    limits (-10.0 170.0)
  end
  begin
     id 27 
     name rwrist
     direction -1 -4.48995e-011 -1.48996e-026   
     length 1.8255   
     axis 9.0955e-015 -90 -90   XYZ
    dof ry
    limits (-180.0 0.0)
  end
  begin
     id 28
     name rhand
     direction -1 -4.48957e-011 -2.97937e-026   
     length 0.694249   
     axis 1.90115e-014 -90 -90   XYZ
    dof rx rz
    limits (-90.0 90.0)
           (-45.0 45.0)
  end
  begin
     id 29
     name rfingers
     direction -1 -4.4898e-011 -5.95943e-026   
     length 0.559721   
     axis 3.80223e-014 -90 -90   XYZ
    dof rx
    limits (0.0 90.0)
  end
  begin
     id 30
     name rthumb
     direction -0.707107 -6.34969e-011 0.707107   
     length 0.803651   
     axis -90 -45 3.84942e-014   XYZ
    dof rx rz
    limits (-45.0 45.0)
           (-45.0 45.0)
  end
:hierarchy
  begin
    root lhipjoint rhipjoint lowerback
    lhipjoint lfemur
    lfemur ltibia
    ltibia lfoot
    lfoot ltoes
    rhipjoint rfemur
    rfemur rtibia
    rtibia rfoot
    rfoot rtoes
    lowerback upperback
    upperback thorax
    thorax lowerneck lclavicle rclavicle
    lowerneck upperneck
    upperneck head
    lclavicle lhumerus
    lhumerus lradius
    lradius lwrist
    lwrist lhand lthumb
    lhand lfingers
    rclavicle rhumerus
    rhumerus rradius
    rradius rwrist
    rwrist rhand rthumb
    rhand rfingers
  end

#!OML:ASF H:\Terrain\Walking\May29\JustinRory\rory.ASF
:FULLY-SPECIFIED
:DEGREES
32
root 12.4009 18.0981 -13.4412 -4.28062 7.37006 0.717116
lowerback 3.44836 0.785905 0.184796
upperback 1.28191 1.07844 2.48457
thorax -0.662496 0.537182 2.40276
lowerneck -13.8957 -6.58536 -6.06198
upperneck 25.9844 -7.59167 -0.721928
head 10.8956 -4.13457 -0.269109
rclavicle -1.57723e-014 0
rhumerus -5.85135 -4.7466 -83.8005
rradius 49.4692
rwrist -14.6089
rhand -16.4366 33.7173
rfingers 7.12502
rthumb 9.77897 3.96432
lclavicle -1.57723e-014 0
lhumerus -23.9765 5.20919 86.8629
lradius 59.9084
lwrist 184.213
lhand -24.0632 -18.4992
lfingers 7.12502
lthumb 2.41631 11.4669
rfemur -16.8319 0.605379 21.286
rtibia 28.9193
rfoot -4.22535 -11.6218
rtoes 15.4749
lfemur -6.86025 -0.720666 -17.3277
ltibia 57.4247
lfoot 1.49322 -5.24718
ltoes -8.56763
33
root 12.3863 18.1105 -13.3121 -4.35567 7.61239 0.372411
lowerback 3.55803 0.819764 0.614123
upperback 1.2275 1.14236 2.56423
thorax -0.775513 0.570233 2.23877
lowerneck -13.5777 -6.88884 -6.4015
upperneck 25.7365 -8.03396 -0.44776
head 10.7848 -4.33664 -0.162495
rclavicle -7.66563e-015 -2.22639e-014
rhumerus -4.93401 -5.36312 -84.1209
rradius 48.4666
rwrist -14.6551
rhand -16.5727 33.6407
rfingers 7.12502
rthumb 9.64763 3.88166
lclavicle -7.66563e-015 -2.22639e-014
lhumerus -24.3437 5.35675 86.8513
lradius 59.6025
lwrist 183.911
lhand -23.0444 -18.6641
lfingers 7.12502
lthumb 3.40026 11.2886
rfemur -16.1715 0.500773 21.7579
rtibia 28.5856
rfoot -5.17986 -11.8327
rtoes 14.6746
lfemur -8.14411 -0.928119 -16.8999
ltibia 58.4874
lfoot 0.188865 -4.55857
ltoes -10.1221
34
root 12.3751 18.1311 -13.188 -4.18299 7.75974 0.381697
lowerback 3.37975 0.900219 0.69401
upperback 1.21532 1.24867 2.56231
thorax -0.690275 0.62335 2.1901
lowerneck -13.4283 -7.13751 -6.82556
upperneck 25.5223 -8.39088 -0.0771416
head 10.729 -4.49525 -0.00405603
rclavicle 2.719e-014 -3.97569e-015
rhumerus -4.10343 -6.04474 -84.298
rradius 47.6174
rwrist -14.5477
rhand -16.6122 33.5541
rfingers 7.12502
rthumb 9.60954 3.79325
lclavicle 2.719e-014 -3.97569e-015
lhumerus -25.0486 5.81405 86.9768
lradius 59.49
lwrist 183.215
lhand -22.6252 -17.3994
lfingers 7.12502
lthumb 3.80501 12.5463
rfemur -15.7919 0.454571 21.8209
rtibia 28.2516
rfoot -5.82598 -11.9666
rtoes 15.8767
lfemur -9.55789 -1.01849 -16.9071
ltibia 59.251
lfoot -1.03694 -3.98342
ltoes -11.461
35
root 12.3663 18.1588 -13.0587 -4.08502 7.59711 0.379948
lowerback 3.28736 1.06339 0.843872
upperback 1.175 1.46944 2.52807
thorax -0.682649 0.733997 2.06319
lowerneck -13.0371 -7.3395 -7.15973
upperneck 25.1527 -8.69822 0.209469
head 10.5612 -4.63518 0.129839
rclavicle -1.66234e-014 -1.59028e-015
rhumerus -3.78671 -6.51136 -84.2898
rradius 47.0934
rwrist -14.5557
rhand -16.3976 33.6823
rfingers 7.12502
rthumb 9.81655 3.93117
lclavicle -1.66234e-014 -1.59028e-015
lhumerus -25.713 5.95507 87.0108
lradius 59.2209
lwrist 182.626
lhand -23.7293 -17.4236
lfingers 7.12502
lthumb 2.73877 12.5385
rfemur -15.2781 0.414368 21.9696
rtibia 27.9916
rfoot -5.95194 -11.9387
rtoes 15.4523
lfemur -10.7242 -0.842681 -16.9193
ltibia 59.7036
lfoot -1.63514 -3.61686
ltoes -9.71596
36
root 12.3518 18.1802 -12.9282 -4.05422 7.20078 0.216878
lowerback 3.40438 1.31812 1.10765
upperback 1.02414 1.82452 2.52536
thorax -0.90514 0.911883 1.8935
lowerneck -12.4192 -7.60286 -7.52238
upperneck 24.704 -9.10594 0.499249
head 10.3308 -4.8264 0.266007
rclavicle 1.23619e-014 2.78299e-014
rhumerus -3.38633 -7.01129 -84.2512
rradius 46.2078
rwrist -14.775
rhand -15.5342 33.6611
rfingers 7.12502
rthumb 10.6495 3.951
lclavicle 1.23619e-014 2.78299e-014
lhumerus -26.2619 5.77421 86.9296
lradius 58.7005
lwrist 182.331
lhand -24.2916 -17.6058
lfingers 7.12502
lthumb 2.1957 12.3626
rfemur -14.762 0.688223 22.3322
rtibia 27.8306
rfoot -5.81746 -12.1257
rtoes 16.1732
lfemur -11.7259 -0.519162 -16.723
ltibia 59.9285
lfoot -2.40397 -3.18655
ltoes -9.49416
37
root 12.338 18.1908 -12.8028 -3.94673 6.95602 0.133765
lowerback 3.4496 1.58883 1.29696
upperback 0.880225 2.19705 2.51741
thorax -1.08004 1.09776 1.75976
lowerneck -11.994 -7.93484 -8.05711
upperneck 24.4339 -9.58353 0.878742
head 10.2258 -5.05408 0.438719
rclavicle -2.83392e-014 8.74653e-015
rhumerus -2.7281 -7.92197 -84.2773
rradius 45.1637
rwrist -14.8407
rhand -14.4423 33.1098
rfingers 7.12502
rthumb 11.7026 3.45666
lclavicle -2.83392e-014 8.74653e-015
lhumerus -26.5193 5.79173 86.9883
lradius 57.7977
lwrist 181.67
lhand -24.8966 -17.496
lfingers 7.12502
lthumb 1.61143 12.4776
rfemur -14.3687 0.873471 22.5953
rtibia 27.6938
rfoot -6.32784 -12.228
rtoes 14.5044
lfemur -12.8052 -0.434087 -16.6594
ltibia 59.969
lfoot -3.53932 -2.63986
ltoes -10.8491
38
root 12.3271 18.2046 -12.6796 -3.75882 6.94116 0.124289
lowerback 3.38565 1.63803 1.37984
upperback 0.617507 2.2708 2.48399
thorax -1.31085 1.13397 1.67308
lowerneck -11.2034 -8.05999 -8.36714
upperneck 24.1179 -9.78953 1.00465
head 9.99804 -5.17095 0.542756
rclavicle 6.17475e-014 2.38542e-014
rhumerus -2.40134 -8.60718 -84.7144
rradius 44.2174
rwrist -14.6702
rhand -13.8168 33.0483
rfingers 7.12502
rthumb 12.3057 3.43043
lclavicle 6.17475e-014 2.38542e-014
lhumerus -27.1799 6.19644 86.6986
lradius 56.8478
lwrist 181.025
lhand -24.8121 -16.7153
lfingers 7.12502
lthumb 1.69306 13.2577
rfemur -14.0674 0.722474 22.7875
rtibia 27.5916
rfoot -6.11853 -12.4277
rtoes 12.8813
lfemur -13.9659 -0.585779 -16.718
ltibia 59.8441
lfoot -4.56375 -1.96483
ltoes -11.0027
39
root 12.3149 18.2169 -12.5603 -3.64105 6.87503 -0.0772149
lowerback 3.56402 1.64168 1.60935
upperback 0.338601 2.29831 2.48657
thorax -1.68872 1.14525 1.53576
lowerneck -10.6682 -8.15931 -8.52239
upperneck 23.9341 -9.96566 1.08993
head 9.85466 -5.26291 0.599657
rclavicle -2.48729e-014 -7.15625e-015
rhumerus -2.12298 -8.93259 -85.1436
rradius 43.3026
rwrist -14.8667
rhand -13.5062 33.0267
rfingers 7.12502
rthumb 12.6052 3.42703
lclavicle -2.48729e-014 -7.15625e-015
lhumerus -28.3453 6.48019 86.2394
lradius 56.5352
lwrist 180.861
lhand -23.9396 -17.015
lfingers 7.12502
lthumb 2.53571 12.9497
rfemur -13.7695 0.633962 23.1708
rtibia 27.5535
rfoot -6.58453 -12.5579
rtoes 12.5184
lfemur -15.0396 -0.608806 -16.5348
ltibia 59.5592
lfoot -5.31431 -1.22399
ltoes -11.0258
40
root 12.3046 18.2219 -12.4451 -3.58564 6.62142 -0.302215
lowerback 3.34422 1.87254 1.84282
upperback 0.668262 2.59838 2.5947
thorax -1.22663 1.29625 1.51593
lowerneck -11.082 -8.47506 -9.02185
upperneck 23.5379 -10.3793 1.58326
head 9.87299 -5.43519 0.778878
rclavicle 1.14053e-014 -1.19271e-014
rhumerus -1.0374 -9.46349 -85.0798
rradius 42.6704
rwrist -15.4192
rhand -13.1069 32.4928
rfingers 7.12502
rthumb 12.9902 2.91721
lclavicle 1.14053e-014 -1.19271e-014
lhumerus -28.4846 6.70211 86.2601
lradius 56.4008
lwrist 180.359
lhand -24.2496 -17.3899
lfingers 7.12502
lthumb 2.23628 12.5781
rfemur -13.4569 0.809829 23.5369
rtibia 27.5245
rfoot -6.51441 -12.6734
rtoes 9.82905
lfemur -15.9833 -0.455897 -16.3202
ltibia 59.0738
lfoot -5.99409 -0.730176
ltoes -11.532
